<svg xmlns="http://www.w3.org/2000/svg" xmlns:xlink="http://www.w3.org/1999/xlink" version="1.1" width="256" height="256" viewBox="0 0 256 256" xml:space="preserve">

<defs>
</defs>
<g style="stroke: none; stroke-width: 0; stroke-dasharray: none; stroke-linecap: butt; stroke-linejoin: miter; stroke-miterlimit: 10; fill: none; fill-rule: nonzero; opacity: 1;" transform="translate(1.4065934065934016 1.4065934065934016) scale(2.81 2.81)" >
	<path d="M 68.946 70.5 c -18.255 3.338 -35.76 -8.754 -39.099 -27.009 s 8.754 -35.76 27.009 -39.099 c 1.737 -0.318 3.462 -0.453 5.174 -0.499 c -7.274 -2.784 -15.379 -3.671 -23.6 -2.168 C 14.531 6.096 -1.3 29.014 3.071 52.914 s 27.288 39.731 51.188 35.361 c 15.891 -2.906 28.206 -14.016 33.396 -28.158 C 82.878 65.341 76.446 69.128 68.946 70.5 z" style="stroke: none; stroke-width: 1; stroke-dasharray: none; stroke-linecap: butt; stroke-linejoin: miter; stroke-miterlimit: 10; fill: rgb(247,215,127); fill-rule: nonzero; opacity: 1;" transform=" matrix(1 0 0 1 0 0) " stroke-linecap="round" />
	<path d="M 46.249 90.005 c -9.048 0 -17.872 -2.733 -25.476 -7.986 C 10.885 75.187 4.249 64.916 2.087 53.094 C -2.376 28.69 13.847 5.205 38.252 0.742 c 8.118 -1.484 16.466 -0.718 24.137 2.217 c 0.445 0.17 0.709 0.632 0.628 1.103 c -0.08 0.47 -0.481 0.818 -0.958 0.831 c -1.904 0.052 -3.5 0.206 -5.022 0.484 c -8.566 1.566 -16.009 6.375 -20.959 13.54 s -6.812 15.828 -5.246 24.395 c 1.566 8.566 6.375 16.01 13.54 20.959 c 7.165 4.95 15.831 6.81 24.395 5.246 l 0 0 c 7.02 -1.284 13.297 -4.768 18.15 -10.074 c 0.324 -0.354 0.852 -0.426 1.258 -0.18 c 0.408 0.248 0.584 0.751 0.419 1.199 c -5.473 14.91 -18.559 25.944 -34.155 28.796 C 51.708 89.757 48.968 90.005 46.249 90.005 z M 46.375 2.004 c -2.591 0 -5.189 0.234 -7.764 0.705 C 15.292 6.974 -0.21 29.415 4.055 52.734 C 6.12 64.03 12.461 73.845 21.91 80.373 c 9.448 6.526 20.87 8.984 32.169 6.918 c 13.308 -2.434 24.704 -11.102 30.715 -23.077 c -4.512 3.72 -9.849 6.206 -15.668 7.269 l 0 0 c -9.097 1.664 -18.287 -0.314 -25.891 -5.567 C 35.63 60.663 30.526 52.763 28.864 43.67 c -1.663 -9.091 0.314 -18.286 5.568 -25.891 c 5.253 -7.604 13.153 -12.708 22.245 -14.371 c 0.116 -0.021 0.232 -0.042 0.35 -0.062 C 53.547 2.454 49.968 2.004 46.375 2.004 z" style="stroke: none; stroke-width: 1; stroke-dasharray: none; stroke-linecap: butt; stroke-linejoin: miter; stroke-miterlimit: 10; fill: rgb(0,0,0); fill-rule: nonzero; opacity: 1;" transform=" matrix(1 0 0 1 0 0) " stroke-linecap="round" />
</g>
</svg>